<?xml version="1.0" encoding="UTF-8" standalone="no"?>
<!DOCTYPE svg PUBLIC "-//W3C//DTD SVG 1.1//EN"
 "http://www.w3.org/Graphics/SVG/1.1/DTD/svg11.dtd">
<!-- Generated by graphviz version 12.0.0 (0)
 -->
<!-- Title: state transitions Pages: 1 -->
<svg width="857pt" height="416pt"
 viewBox="0.00 0.00 857.00 415.60" xmlns="http://www.w3.org/2000/svg" xmlns:xlink="http://www.w3.org/1999/xlink">
<g id="graph0" class="graph" transform="scale(1 1) rotate(0) translate(4 411.6)">
<title>state transitions</title>
<polygon fill="white" stroke="none" points="-4,4 -4,-411.6 853,-411.6 853,4 -4,4"/>
<g id="clust1" class="cluster state initial">
<title>cluster_uninitialized</title>
<path fill="none" stroke="black" stroke-width="2" d="M20,-80.4C20,-80.4 187,-80.4 187,-80.4 193,-80.4 199,-86.4 199,-92.4 199,-92.4 199,-356.8 199,-356.8 199,-362.8 193,-368.8 187,-368.8 187,-368.8 20,-368.8 20,-368.8 14,-368.8 8,-362.8 8,-356.8 8,-356.8 8,-92.4 8,-92.4 8,-86.4 14,-80.4 20,-80.4"/>
<text text-anchor="start" x="72.15" y="-350" font-family="Helvetica,sans-Serif" font-size="12.00">uninitialized</text>
</g>
<g id="clust2" class="cluster state regular">
<title>cluster_GameInitialized</title>
<path fill="none" stroke="black" stroke-width="2" d="M219,-8C219,-8 829,-8 829,-8 835,-8 841,-14 841,-20 841,-20 841,-254 841,-254 841,-260 835,-266 829,-266 829,-266 219,-266 219,-266 213,-266 207,-260 207,-254 207,-254 207,-20 207,-20 207,-14 213,-8 219,-8"/>
<text text-anchor="start" x="482.65" y="-247.2" font-family="Helvetica,sans-Serif" font-size="12.00">GameInitialized</text>
</g>
<g id="clust3" class="cluster state regular">
<title>cluster_GameActive</title>
<path fill="none" stroke="black" stroke-width="2" d="M227,-80.4C227,-80.4 813,-80.4 813,-80.4 819,-80.4 825,-86.4 825,-92.4 825,-92.4 825,-215.6 825,-215.6 825,-221.6 819,-227.6 813,-227.6 813,-227.6 227,-227.6 227,-227.6 221,-227.6 215,-221.6 215,-215.6 215,-215.6 215,-92.4 215,-92.4 215,-86.4 221,-80.4 227,-80.4"/>
<text text-anchor="start" x="487.32" y="-208.8" font-family="Helvetica,sans-Serif" font-size="12.00">GameActive</text>
</g>
<!-- initial -->
<g id="node1" class="node state initial">
<title>initial</title>
<ellipse fill="black" stroke="black" stroke-width="2" cx="100" cy="-402.2" rx="5.4" ry="5.4"/>
</g>
<!-- GameUninittialized -->
<g id="node3" class="node state regular">
<title>GameUninittialized</title>
<polygon fill="#ffffff" fill-opacity="0.003922" stroke="none" stroke-width="2" points="161.36,-330.4 38.64,-330.4 38.64,-294 161.36,-294 161.36,-330.4"/>
<text text-anchor="start" x="49.64" y="-308.6" font-family="Helvetica,sans-Serif" font-size="12.00">GameUninittialized</text>
<path fill="none" stroke="black" stroke-width="2" d="M51.11,-295C51.11,-295 148.89,-295 148.89,-295 154.62,-295 160.36,-300.73 160.36,-306.47 160.36,-306.47 160.36,-317.93 160.36,-317.93 160.36,-323.67 154.62,-329.4 148.89,-329.4 148.89,-329.4 51.11,-329.4 51.11,-329.4 45.38,-329.4 39.64,-323.67 39.64,-317.93 39.64,-317.93 39.64,-306.47 39.64,-306.47 39.64,-300.73 45.38,-295 51.11,-295"/>
</g>
<!-- initial&#45;&gt;GameUninittialized -->
<g id="edge1" class="edge transition">
<title>initial&#45;&gt;GameUninittialized</title>
<path fill="none" stroke="black" d="M100,-395.96C100,-385.48 100,-361.27 100,-341.73"/>
<polygon fill="black" stroke="black" points="103.5,-341.84 100,-331.84 96.5,-341.84 103.5,-341.84"/>
<text text-anchor="middle" x="101.39" y="-379.8" font-family="Helvetica,sans-Serif" font-size="10.00"> </text>
</g>
<!-- uninitialized -->
<!-- GameInitialFetching -->
<g id="node4" class="node state regular">
<title>GameInitialFetching</title>
<polygon fill="#ffffff" fill-opacity="0.003922" stroke="none" stroke-width="2" points="191.36,-189.2 62.64,-189.2 62.64,-152.8 191.36,-152.8 191.36,-189.2"/>
<text text-anchor="start" x="73.64" y="-167.4" font-family="Helvetica,sans-Serif" font-size="12.00">GameInitialFetching</text>
<path fill="none" stroke="black" stroke-width="2" d="M75.11,-153.8C75.11,-153.8 178.89,-153.8 178.89,-153.8 184.63,-153.8 190.36,-159.53 190.36,-165.27 190.36,-165.27 190.36,-176.73 190.36,-176.73 190.36,-182.47 184.63,-188.2 178.89,-188.2 178.89,-188.2 75.11,-188.2 75.11,-188.2 69.37,-188.2 63.64,-182.47 63.64,-176.73 63.64,-176.73 63.64,-165.27 63.64,-165.27 63.64,-159.53 69.37,-153.8 75.11,-153.8"/>
</g>
<!-- GameUninittialized&#45;&gt;GameInitialFetching -->
<g id="edge2" class="edge transition">
<title>GameUninittialized&#45;&gt;GameInitialFetching</title>
<path fill="none" stroke="black" d="M103.31,-294.13C107.87,-270.63 116.13,-228.02 121.6,-199.86"/>
<polygon fill="black" stroke="black" points="124.99,-200.74 123.46,-190.26 118.12,-199.41 124.99,-200.74"/>
<text text-anchor="start" x="106" y="-277" font-family="Helvetica,sans-Serif" font-size="10.00">GameQuestionsRequested &#160;&#160;</text>
</g>
<!-- GameInitialFetchingError -->
<g id="node5" class="node state regular">
<title>GameInitialFetchingError</title>
<polygon fill="#ffffff" fill-opacity="0.003922" stroke="none" stroke-width="2" points="172.69,-124.8 17.31,-124.8 17.31,-88.4 172.69,-88.4 172.69,-124.8"/>
<text text-anchor="start" x="28.31" y="-103" font-family="Helvetica,sans-Serif" font-size="12.00">GameInitialFetchingError</text>
<path fill="none" stroke="black" stroke-width="2" d="M29.78,-89.4C29.78,-89.4 160.22,-89.4 160.22,-89.4 165.96,-89.4 171.69,-95.13 171.69,-100.87 171.69,-100.87 171.69,-112.33 171.69,-112.33 171.69,-118.07 165.96,-123.8 160.22,-123.8 160.22,-123.8 29.78,-123.8 29.78,-123.8 24.04,-123.8 18.31,-118.07 18.31,-112.33 18.31,-112.33 18.31,-100.87 18.31,-100.87 18.31,-95.13 24.04,-89.4 29.78,-89.4"/>
</g>
<!-- GameInitialFetching&#45;&gt;GameInitialFetchingError -->
<g id="edge3" class="edge transition">
<title>GameInitialFetching&#45;&gt;GameInitialFetchingError</title>
<path fill="none" stroke="black" d="M118.26,-152.95C115.36,-147.31 112.07,-140.89 108.89,-134.68"/>
<polygon fill="black" stroke="black" points="112.1,-133.28 104.42,-125.98 105.87,-136.47 112.1,-133.28"/>
<text text-anchor="middle" x="114.39" y="-135.8" font-family="Helvetica,sans-Serif" font-size="10.00"> </text>
</g>
<!-- GameInProgress -->
<g id="node10" class="node state regular">
<title>GameInProgress</title>
<polygon fill="#ffffff" fill-opacity="0.003922" stroke="none" stroke-width="2" points="335.35,-124.8 222.65,-124.8 222.65,-88.4 335.35,-88.4 335.35,-124.8"/>
<text text-anchor="start" x="233.65" y="-103" font-family="Helvetica,sans-Serif" font-size="12.00">GameInProgress</text>
<path fill="none" stroke="black" stroke-width="2" d="M235.12,-89.4C235.12,-89.4 322.88,-89.4 322.88,-89.4 328.62,-89.4 334.35,-95.13 334.35,-100.87 334.35,-100.87 334.35,-112.33 334.35,-112.33 334.35,-118.07 328.62,-123.8 322.88,-123.8 322.88,-123.8 235.12,-123.8 235.12,-123.8 229.38,-123.8 223.65,-118.07 223.65,-112.33 223.65,-112.33 223.65,-100.87 223.65,-100.87 223.65,-95.13 229.38,-89.4 235.12,-89.4"/>
</g>
<!-- GameInitialFetching&#45;&gt;GameInProgress -->
<g id="edge4" class="edge transition">
<title>GameInitialFetching&#45;&gt;GameInProgress</title>
<path fill="none" stroke="black" d="M168.53,-152.95C186.47,-145.58 207.66,-136.89 226.66,-129.09"/>
<polygon fill="black" stroke="black" points="227.93,-132.35 235.85,-125.31 225.27,-125.87 227.93,-132.35"/>
<text text-anchor="middle" x="217.39" y="-135.8" font-family="Helvetica,sans-Serif" font-size="10.00"> </text>
</g>
<!-- GameInitialFetchingError&#45;&gt;GameUninittialized -->
<g id="edge5" class="edge transition">
<title>GameInitialFetchingError&#45;&gt;GameUninittialized</title>
<path fill="none" stroke="black" d="M70.97,-124.72C62.42,-132.25 53.79,-141.88 49.22,-152.8 29.82,-199.22 28.63,-220.1 49.22,-266 52.68,-273.7 58.16,-280.62 64.27,-286.61"/>
<polygon fill="black" stroke="black" points="61.91,-289.19 71.73,-293.16 66.53,-283.93 61.91,-289.19"/>
<text text-anchor="middle" x="50.39" y="-168" font-family="Helvetica,sans-Serif" font-size="10.00"> </text>
</g>
<!-- GameInitialized -->
<!-- GameEnded -->
<g id="node7" class="node state regular">
<title>GameEnded</title>
<polygon fill="#ffffff" fill-opacity="0.003922" stroke="none" stroke-width="2" points="323.69,-52.4 234.31,-52.4 234.31,-16 323.69,-16 323.69,-52.4"/>
<text text-anchor="start" x="245.31" y="-30.6" font-family="Helvetica,sans-Serif" font-size="12.00">GameEnded</text>
<path fill="none" stroke="black" stroke-width="2" d="M246.78,-17C246.78,-17 311.22,-17 311.22,-17 316.96,-17 322.69,-22.73 322.69,-28.47 322.69,-28.47 322.69,-39.93 322.69,-39.93 322.69,-45.67 316.96,-51.4 311.22,-51.4 311.22,-51.4 246.78,-51.4 246.78,-51.4 241.04,-51.4 235.31,-45.67 235.31,-39.93 235.31,-39.93 235.31,-28.47 235.31,-28.47 235.31,-22.73 241.04,-17 246.78,-17"/>
</g>
<!-- GameActive -->
<!-- GamePaused -->
<g id="node9" class="node state regular">
<title>GamePaused</title>
<polygon fill="#ffffff" fill-opacity="0.003922" stroke="none" stroke-width="2" points="372.69,-189.2 277.31,-189.2 277.31,-152.8 372.69,-152.8 372.69,-189.2"/>
<text text-anchor="start" x="288.31" y="-167.4" font-family="Helvetica,sans-Serif" font-size="12.00">GamePaused</text>
<path fill="none" stroke="black" stroke-width="2" d="M289.78,-153.8C289.78,-153.8 360.22,-153.8 360.22,-153.8 365.96,-153.8 371.69,-159.53 371.69,-165.27 371.69,-165.27 371.69,-176.73 371.69,-176.73 371.69,-182.47 365.96,-188.2 360.22,-188.2 360.22,-188.2 289.78,-188.2 289.78,-188.2 284.04,-188.2 278.31,-182.47 278.31,-176.73 278.31,-176.73 278.31,-165.27 278.31,-165.27 278.31,-159.53 284.04,-153.8 289.78,-153.8"/>
</g>
<!-- GamePaused&#45;&gt;GameInProgress -->
<g id="edge12" class="edge transition">
<title>GamePaused&#45;&gt;GameInProgress</title>
<path fill="none" stroke="black" d="M329.86,-153.07C330.58,-148.02 330.64,-142.5 326.2,-134.1"/>
<polygon fill="black" stroke="black" points="329.29,-132.43 320.94,-125.91 323.4,-136.22 329.29,-132.43"/>
<text text-anchor="start" x="330" y="-135.8" font-family="Helvetica,sans-Serif" font-size="10.00">GameResume &#160;&#160;</text>
</g>
<!-- GameInProgress&#45;&gt;GameEnded -->
<g id="edge10" class="edge transition">
<title>GameInProgress&#45;&gt;GameEnded</title>
<path fill="none" stroke="black" d="M279,-88.56C279,-81.03 279,-71.99 279,-63.5"/>
<polygon fill="black" stroke="black" points="282.5,-63.6 279,-53.6 275.5,-63.6 282.5,-63.6"/>
<text text-anchor="start" x="279" y="-63.4" font-family="Helvetica,sans-Serif" font-size="10.00">GameSubmitAnswer &#160;&#160;</text>
</g>
<!-- GameInProgress&#45;&gt;GamePaused -->
<g id="edge11" class="edge transition">
<title>GameInProgress&#45;&gt;GamePaused</title>
<path fill="none" stroke="black" d="M264.04,-124.53C260.04,-131.12 257.86,-138.57 262.08,-144.8 263.9,-147.5 266.07,-149.9 268.48,-152.05"/>
<polygon fill="black" stroke="black" points="266.06,-154.63 276.24,-157.54 270.1,-148.91 266.06,-154.63"/>
<text text-anchor="start" x="262" y="-135.8" font-family="Helvetica,sans-Serif" font-size="10.00">GamePause &#160;&#160;</text>
</g>
<!-- GameInProgress&#45;&gt;GameInProgress -->
<g id="edge6" class="edge transition">
<title>GameInProgress&#45;&gt;GameInProgress</title>
<path fill="none" stroke="black" d="M335.34,-108.07C348.05,-107.94 357.35,-107.45 357.35,-106.6 357.35,-106.03 353.15,-105.62 346.55,-105.37"/>
<polygon fill="black" stroke="black" points="346.93,-101.88 336.86,-105.16 346.78,-108.88 346.93,-101.88"/>
<text text-anchor="start" x="357.35" y="-103.6" font-family="Helvetica,sans-Serif" font-size="10.00">GameAnswerSelect &#160;&#160;</text>
</g>
<!-- GameInProgress&#45;&gt;GameInProgress -->
<g id="edge7" class="edge transition">
<title>GameInProgress&#45;&gt;GameInProgress</title>
<path fill="none" stroke="black" d="M335.32,-109.21C387.88,-110.22 454.06,-109.35 454.06,-106.6 454.06,-104.04 396.86,-103.11 346.58,-103.8"/>
<polygon fill="black" stroke="black" points="346.78,-100.3 336.84,-103.96 346.89,-107.3 346.78,-100.3"/>
<text text-anchor="start" x="454.06" y="-103.6" font-family="Helvetica,sans-Serif" font-size="10.00">GameAnswerUnselect &#160;&#160;</text>
</g>
<!-- GameInProgress&#45;&gt;GameInProgress -->
<g id="edge8" class="edge transition">
<title>GameInProgress&#45;&gt;GameInProgress</title>
<path fill="none" stroke="black" d="M335.14,-109.85C419.96,-112.31 561.87,-111.22 561.87,-106.6 561.87,-102.18 432.16,-101 346.64,-103.05"/>
<polygon fill="black" stroke="black" points="346.56,-99.55 336.65,-103.31 346.74,-106.54 346.56,-99.55"/>
<text text-anchor="start" x="561.87" y="-103.6" font-family="Helvetica,sans-Serif" font-size="10.00">GameValidateAnswer &#160;&#160;</text>
</g>
<!-- GameInProgress&#45;&gt;GameInProgress -->
<g id="edge9" class="edge transition">
<title>GameInProgress&#45;&gt;GameInProgress</title>
<path fill="none" stroke="black" d="M335.06,-110.37C445.82,-114.35 666.92,-113.09 666.92,-106.6 666.92,-100.32 460.26,-98.94 346.45,-102.45"/>
<polygon fill="black" stroke="black" points="346.45,-98.95 336.58,-102.78 346.69,-105.95 346.45,-98.95"/>
<text text-anchor="start" x="666.92" y="-103.6" font-family="Helvetica,sans-Serif" font-size="10.00">GameSubmitAnswer &#160;&#160;</text>
</g>
</g>
</svg>
