<svg width="216" height="281" viewBox="0 0 216 281" fill="none" xmlns="http://www.w3.org/2000/svg">
<path fill-rule="evenodd" clip-rule="evenodd" d="M61.7792 126.123C61.6146 125.965 61.4517 125.806 61.2887 125.647L58.2291 122.588C43.3029 105.323 39.9519 100.924 36.5311 94.9906C23.0685 71.6396 21.0622 46.7423 33.7846 26.7872C41.7984 14.2181 54.6188 5.22962 70.2828 0C52.0875 4.26061 36.8899 13.278 27.3724 26.8996C10.8807 50.5043 15.5323 82.0844 36.1289 109.91C38.2371 112.759 56.9839 133.432 56.9839 133.432L0 190.416H29.7119L71.8402 148.287L113.994 190.442H126.083L61.7752 126.133L61.7792 126.123Z" fill="#33425F"/>
<path fill-rule="evenodd" clip-rule="evenodd" d="M165.965 170.185L202.67 132.962C210.806 125 215.134 114.784 215.134 106.128C215.134 88.1224 200.764 74.4454 179.642 74.4454H157.052L136.361 94.7016H179.642C188.473 94.7016 194.532 99.8951 194.532 107.167C194.532 110.629 193.147 115.476 188.993 119.285L135.423 174.06L90.746 129.383L145.712 74.4165H116L75.8896 114.527L73.8665 112.503C73.8697 112.499 73.8753 112.493 73.8753 112.493C69.7239 108.448 62.2881 100.109 62.2881 100.109C60.6367 98.1666 59.0784 96.1981 57.6173 94.2071C42.0448 72.9947 37.4639 49.3073 47.7417 29.0351C54.2358 16.2252 65.8214 6.43146 80.5966 0C63.2395 5.72497 49.3297 15.7595 41.4764 29.7159C29.0326 51.829 34.6187 78.7751 53.3679 102.288C54.2839 103.436 63.8416 114.75 68.27 118.996L139.739 190.441L139.738 190.392L139.752 190.441H143.304H216V170.185H165.965Z" fill="#20C1E5"/>
<path d="M198.566 239.816H208V280.066H198.566V277C195.5 279.594 191.334 281.01 187.01 281.01C176.004 281.01 166.964 272.205 166.964 259.941C166.964 247.677 176.004 238.873 187.01 238.873C191.334 238.873 195.5 240.288 198.566 242.882V239.816ZM188.425 272.362C192.199 272.362 195.972 270.79 198.566 267.645V252.237C195.972 249.092 192.199 247.599 188.425 247.599C181.743 247.599 176.555 252.394 176.555 259.941C176.555 267.488 181.743 272.362 188.425 272.362Z" fill="#33425F"/>
<path d="M155.518 234.47C152.137 234.47 149.386 231.797 149.386 228.417C149.386 225.194 152.137 222.442 155.518 222.442C158.82 222.442 161.492 225.194 161.492 228.417C161.492 231.797 158.82 234.47 155.518 234.47ZM150.722 280.066V239.816H160.156V280.066H150.722Z" fill="#33425F"/>
<path d="M134.661 239.816H145.038L128.45 280.066H118.388L101.722 239.816H112.177L123.419 268.51L134.661 239.816Z" fill="#33425F"/>
<path d="M91.5275 234.47C88.1471 234.47 85.3956 231.797 85.3956 228.417C85.3956 225.194 88.1471 222.442 91.5275 222.442C94.8293 222.442 97.5021 225.194 97.5021 228.417C97.5021 231.797 94.8293 234.47 91.5275 234.47ZM86.7321 280.066V239.816H96.1657V280.066H86.7321Z" fill="#33425F"/>
<path d="M76.5501 238.873C77.8079 238.873 79.2229 239.03 80.7166 239.423L80.1663 248.149C78.8299 247.913 77.572 247.756 76.4715 247.756C71.9119 247.756 67.9026 249.8 65.3869 253.888V280.066H55.9533V239.816H65.3869V244.14C67.9812 240.759 72.2263 238.873 76.5501 238.873Z" fill="#33425F"/>
<path d="M52.8884 225.036V234.313H35.4362V280.066H25.4522V234.313H8V225.036H52.8884Z" fill="#33425F"/>
</svg>
