<svg width="198" height="56" viewBox="0 0 198 56" fill="none" xmlns="http://www.w3.org/2000/svg">
    <g id="Frame 8" clip-path="url(#clip0_59299_27358)">
        <path id="Fill-11" fill-rule="evenodd" clip-rule="evenodd"
            d="M16.8326 36.4054C16.7851 36.3597 16.7381 36.3139 16.691 36.268L15.8079 35.3851C11.4994 30.4016 10.5321 29.1316 9.54472 27.4191C5.65872 20.6788 5.07961 13.4922 8.75195 7.73213C11.0651 4.10406 14.7657 1.50953 19.2872 0C14.0351 1.22983 9.6483 3.83269 6.90106 7.76457C2.14073 14.5781 3.48341 23.6937 9.42862 31.7257C10.0372 32.5479 15.4484 38.5151 15.4484 38.5151L-1 54.9636H7.57635L19.7367 42.8032L31.9045 54.9712H35.394L16.8314 36.4084L16.8326 36.4054Z"
            fill="#33425F" />
        <path id="Fill-12" fill-rule="evenodd" clip-rule="evenodd"
            d="M46.906 49.124L57.5008 38.3796C59.8494 36.0812 61.0985 33.1323 61.0985 30.634C61.0985 25.4366 56.9506 21.4887 50.8539 21.4887H44.333L38.3607 27.3357H50.8539C53.4027 27.3357 55.1519 28.8348 55.1519 30.9338C55.1519 31.9331 54.7519 33.3323 53.5529 34.4317L38.09 50.2424L25.1939 37.3465L41.0597 21.4804H32.4834L20.9056 33.0582L20.3216 32.474C20.3225 32.473 20.3242 32.4712 20.3242 32.4712C19.1259 31.3035 16.9795 28.8964 16.9795 28.8964C16.5028 28.3358 16.053 27.7676 15.6313 27.1929C11.1363 21.07 9.81398 14.2326 12.7807 8.38099C14.6552 4.6834 17.9994 1.85644 22.2643 0C17.2541 1.65252 13.2391 4.54899 10.9722 8.57751C7.38028 14.9605 8.99271 22.7385 14.4047 29.5256C14.6691 29.8567 17.4279 33.1226 18.7062 34.3483L39.3359 54.971L39.3354 54.9568L39.3396 54.971H40.3648H61.3485V49.124H46.906Z"
            fill="#20C1E5" />
        <path id="Vector"
            d="M191.356 30.4241H197.116V55.0001H191.356V53.1281C189.484 54.7121 186.94 55.5761 184.3 55.5761C177.58 55.5761 172.06 50.2001 172.06 42.7121C172.06 35.2241 177.58 29.8481 184.3 29.8481C186.94 29.8481 189.484 30.7121 191.356 32.2961V30.4241ZM185.164 50.2961C187.468 50.2961 189.772 49.3361 191.356 47.4161V38.0081C189.772 36.0881 187.468 35.1761 185.164 35.1761C181.084 35.1761 177.916 38.1041 177.916 42.7121C177.916 47.3201 181.084 50.2961 185.164 50.2961Z"
            fill="#33425F" />
        <path id="Vector_2"
            d="M165.072 27.1599C163.008 27.1599 161.328 25.5279 161.328 23.4639C161.328 21.4959 163.008 19.8159 165.072 19.8159C167.088 19.8159 168.72 21.4959 168.72 23.4639C168.72 25.5279 167.088 27.1599 165.072 27.1599ZM162.144 54.9999V30.4239H167.904V54.9999H162.144Z"
            fill="#33425F" />
        <path id="Vector_3" d="M152.337 30.4238H158.673L148.545 54.9998H142.401L132.225 30.4238H138.609L145.473 47.9438L152.337 30.4238Z" fill="#33425F" />
        <path id="Vector_4"
            d="M126 27.1599C123.936 27.1599 122.256 25.5279 122.256 23.4639C122.256 21.4959 123.936 19.8159 126 19.8159C128.016 19.8159 129.648 21.4959 129.648 23.4639C129.648 25.5279 128.016 27.1599 126 27.1599ZM123.072 54.9999V30.4239H128.832V54.9999H123.072Z"
            fill="#33425F" />
        <path id="Vector_5"
            d="M116.855 29.8481C117.623 29.8481 118.487 29.9441 119.399 30.1841L119.063 35.5121C118.247 35.3681 117.479 35.2721 116.807 35.2721C114.023 35.2721 111.575 36.5201 110.039 39.0161V55.0001H104.279V30.4241H110.039V33.0641C111.623 31.0001 114.215 29.8481 116.855 29.8481Z"
            fill="#33425F" />
        <path id="Vector_6" d="M102.408 21.3999V27.0639H91.752V54.9999H85.656V27.0639H75V21.3999H102.408Z" fill="#33425F" />
    </g>
    <defs>
        <clipPath id="clip0_59299_27358">
            <rect width="198" height="56" fill="white" />
        </clipPath>
    </defs>
</svg>
